<svg width="60" height="60" viewBox="0 0 60 60" fill="none" xmlns="http://www.w3.org/2000/svg">
<path d="M16.5 39C10.701 39 6 34.299 6 28.5C6 23.0749 10.1144 18.6107 15.393 18.0577C15.1366 17.0815 15 16.0567 15 15C15 8.37258 20.3726 3 27 3C32.6365 3 37.3654 6.88613 38.6535 12.1252C39.2572 12.0427 39.8736 12 40.5 12C47.9558 12 54 18.0442 54 25.5C54 32.9558 47.9558 39 40.5 39H33V28.2426L36.8787 32.1213C38.0503 33.2929 39.9498 33.2929 41.1213 32.1213C42.2929 30.9497 42.2929 29.0503 41.1213 27.8787L32.1213 18.8787C30.9498 17.7071 29.0503 17.7071 27.8787 18.8787L18.8787 27.8787C17.7071 29.0502 17.7071 30.9497 18.8787 32.1213C20.0503 33.2929 21.9497 33.2929 23.1213 32.1213L27 28.2426L27 39H16.5Z" fill="#FFFFFF"/>
<path d="M27 39H33L33 54C33 55.6569 31.6569 57 30 57C28.3431 57 27 55.6569 27 54L27 39Z" fill="#FFFFFF"/>
</svg>
