<svg width="60" height="60" viewBox="0 0 60 60" fill="none" xmlns="http://www.w3.org/2000/svg">
<path fill-rule="evenodd" clip-rule="evenodd" d="M6 28.5C6 34.299 10.701 39 16.5 39H27V46.7574L23.1213 42.8787C21.9497 41.7071 20.0503 41.7071 18.8787 42.8787C17.7071 44.0503 17.7071 45.9497 18.8787 47.1213L27.8787 56.1213C29.0503 57.2929 30.9497 57.2929 32.1213 56.1213L41.1213 47.1213C42.2929 45.9497 42.2929 44.0503 41.1213 42.8787C39.9497 41.7071 38.0503 41.7071 36.8787 42.8787L33 46.7574V39H40.5C47.9558 39 54 32.9558 54 25.5C54 18.0442 47.9558 12 40.5 12C39.8736 12 39.2572 12.0427 38.6535 12.1252C37.3654 6.88613 32.6365 3 27 3C20.3726 3 15 8.37258 15 15C15 16.0567 15.1366 17.0815 15.393 18.0577C10.1144 18.6107 6 23.0749 6 28.5ZM33 39H27V24C27 22.3431 28.3431 21 30 21C31.6569 21 33 22.3431 33 24V39Z" fill="#FFFFFF"/>
</svg>
