<svg width="451" height="117" viewBox="0 0 451 117" fill="none" xmlns="http://www.w3.org/2000/svg">
<mask id="mask0_1_1017" style="mask-type:luminance" maskUnits="userSpaceOnUse" x="0" y="0" width="451" height="117">
<path d="M0 0H450.791V117H0V0Z" fill="white"/>
</mask>
<g mask="url(#mask0_1_1017)">
<path d="M190.495 87.858H175.777L154.831 28.287H165.681L182.422 77.379H184.104L201.433 28.29H212.117L190.498 87.861L190.495 87.858ZM240.144 57.018L267.401 87.858H254.11L231.901 62.34H229.377V87.858H219.282V28.287H229.377V52.539H231.817L252.847 28.287H265.296L240.147 57.015L240.144 57.018ZM291.412 87.858V28.287H312.442C316.48 28.287 320.124 29.16 323.379 30.906C326.685 32.598 329.266 34.962 331.118 38.004C332.967 41.046 333.892 44.511 333.892 48.399C333.892 52.227 332.967 55.692 331.118 58.791C329.266 61.833 326.685 64.227 323.379 65.973C320.124 67.662 316.48 68.508 312.442 68.508H301.507V87.858H291.412ZM312.442 59.214C315.751 59.214 318.415 58.227 320.434 56.256C322.507 54.228 323.546 51.606 323.546 48.396C323.546 45.186 322.507 42.594 320.434 40.626C318.415 38.595 315.751 37.581 312.442 37.581H301.507V59.211H312.442V59.214ZM351.598 87.858H341.924V28.287H351.598V87.858ZM380.779 43.074C386.388 43.074 390.79 44.85 393.986 48.396C397.239 51.891 398.866 56.82 398.866 63.186V87.858H391.716L389.697 80.928C388.463 83.013 386.639 84.843 384.228 86.421C381.818 87.942 378.957 88.701 375.647 88.701C372.732 88.701 370.095 88.11 367.741 86.928C365.513 85.811 363.646 84.0821 362.356 81.942C361.066 79.803 360.421 77.382 360.421 74.676C360.421 70.506 362.049 67.185 365.301 64.707C368.611 62.172 373.404 60.903 379.685 60.903H389.109C388.882 57.975 387.986 55.665 386.415 53.973C384.9 52.227 382.854 51.354 380.274 51.354C378.198 51.354 376.406 51.864 374.892 52.875C373.377 53.889 372.254 55.128 371.526 56.595L362.607 55.074C363.673 51.354 365.863 48.426 369.169 46.284C372.535 44.145 376.406 43.074 380.779 43.074ZM377.92 80.505C381.283 80.505 384.004 79.407 386.08 77.211C388.153 75.015 389.192 72.111 389.192 68.508H380.023C373.461 68.508 370.179 70.422 370.179 74.253C370.179 76.17 370.88 77.688 372.284 78.816C373.685 79.944 375.564 80.505 377.92 80.505ZM438.844 43.92H448.685L430.768 93.351C429.254 97.518 427.291 100.533 424.878 102.39C422.524 104.25 419.355 105.18 415.374 105.18H408.729L407.886 96.306H416.046C417.671 96.306 418.907 95.94 419.747 95.208C420.646 94.533 421.401 93.321 422.02 91.575L422.524 90.225L403.09 43.92H413.439L426.309 75.606H427.656L438.844 43.92Z" fill="white"/>
<path d="M60.6879 0C87.0131 0 100.176 0 108.33 8.19C116.483 16.38 116.483 29.601 116.483 56.043V60.957C116.483 87.399 116.483 100.62 108.33 108.81C100.176 117 87.0131 117 60.6879 117H55.7956C29.4703 117 16.3077 117 8.15384 108.81C0 100.62 0 87.399 0 60.96V56.04C0 29.598 0 16.38 8.15384 8.19C16.3077 0 29.4703 0 55.7956 0H60.6879Z" fill="#0077FF"/>
<path d="M0.34945 32.88C0 39.192 0 46.8 0 56.04V60.954C0 67.974 0 73.944 0.116483 79.206C15.3758 86.7 35.8769 91.26 58.2417 91.26C80.6065 91.26 101.108 86.7 116.367 79.209C116.483 73.944 116.483 67.86 116.483 60.96V56.046C116.483 46.806 116.483 39.198 116.134 32.766H0.34945V32.88Z" fill="#0009B4"/>
<path d="M80.9561 70.2C87.0676 70.2 92.022 65.2236 92.022 59.085C92.022 52.9463 87.0676 47.97 80.9561 47.97C74.8445 47.97 69.8901 52.9463 69.8901 59.085C69.8901 65.2236 74.8445 70.2 80.9561 70.2Z" stroke="white" stroke-width="3.897"/>
<path d="M48.9232 72.5401L23.2969 46.8M48.9232 46.8L23.2969 72.5401" stroke="white" stroke-width="3.897"/>
</g>
</svg>
