<svg width="1812" height="1080" viewBox="0 0 1812 1080" fill="none" xmlns="http://www.w3.org/2000/svg">
<g filter="url(#filter0_f_1_13)">
<path fill-rule="evenodd" clip-rule="evenodd" d="M-67.1139 395.654C198.847 302.936 252.069 759.914 465.466 943.69C686.236 1133.81 1166.21 1121.19 1106.53 1406.38C1035.88 1743.97 621.283 1870.94 277.662 1841.14C-67.774 1811.19 -389.268 1606.95 -469.707 1269.71C-551.979 924.777 -401.998 512.4 -67.1139 395.654Z" fill="#040640"/>
</g>
<g filter="url(#filter1_f_1_13)">
<path fill-rule="evenodd" clip-rule="evenodd" d="M-67.1139 395.654C198.847 302.936 252.069 759.914 465.466 943.69C686.236 1133.81 1166.21 1121.19 1106.53 1406.38C1035.88 1743.97 621.283 1870.94 277.662 1841.14C-67.774 1811.19 -389.268 1606.95 -469.707 1269.71C-551.979 924.777 -401.998 512.4 -67.1139 395.654Z" fill="#0C128B"/>
</g>
<g filter="url(#filter2_f_1_13)">
<path fill-rule="evenodd" clip-rule="evenodd" d="M-96.208 668.359C18.1495 625.248 225.801 932.828 319.918 1010.63C466.043 1131.43 968.155 1156.14 904.713 1334.89C832.933 1537.11 350.33 1596.02 138.421 1562.07C-59.7635 1530.33 -249.405 1406.28 -274.397 1207.23C-297.014 1027.1 -266.231 732.455 -96.208 668.359Z" fill="#242998" fill-opacity="0.6"/>
</g>
<g filter="url(#filter3_f_1_13)">
<path fill-rule="evenodd" clip-rule="evenodd" d="M26.0731 700.964C144.299 702.65 99.5976 890.614 157.345 993.831C217.087 1100.61 408.206 1164.7 343.671 1268.64C267.279 1391.67 85.5055 1382.11 -45.7375 1320.91C-177.674 1259.38 -275.114 1132.54 -258.36 987.901C-241.224 839.967 -122.79 698.84 26.0731 700.964Z" fill="#168FFF" fill-opacity="0.7"/>
</g>
<g filter="url(#filter4_f_1_13)">
<path fill-rule="evenodd" clip-rule="evenodd" d="M-12.8623 1191.65C-78.7083 1283.82 50.171 1386.62 135.959 1460.59C179.74 1498.34 236.548 1468.76 292.727 1455.14C427.234 1422.51 655.984 1474.38 648.954 1336.16C641.932 1198.07 417.65 1284.87 282.567 1255.37C173.754 1231.61 51.8805 1101.02 -12.8623 1191.65Z" fill="#2028D1"/>
</g>
<defs>
<filter id="filter0_f_1_13" x="-1191.83" y="-316.622" width="3003.46" height="2861.97" filterUnits="userSpaceOnUse" color-interpolation-filters="sRGB">
<feFlood flood-opacity="0" result="BackgroundImageFix"/>
<feBlend mode="normal" in="SourceGraphic" in2="BackgroundImageFix" result="shape"/>
<feGaussianBlur stdDeviation="350" result="effect1_foregroundBlur_1_13"/>
</filter>
<filter id="filter1_f_1_13" x="-1091.83" y="-216.622" width="2803.46" height="2661.97" filterUnits="userSpaceOnUse" color-interpolation-filters="sRGB">
<feFlood flood-opacity="0" result="BackgroundImageFix"/>
<feBlend mode="normal" in="SourceGraphic" in2="BackgroundImageFix" result="shape"/>
<feGaussianBlur stdDeviation="300" result="effect1_foregroundBlur_1_13"/>
</filter>
<filter id="filter2_f_1_13" x="-780.923" y="164.238" width="2191.15" height="1906.86" filterUnits="userSpaceOnUse" color-interpolation-filters="sRGB">
<feFlood flood-opacity="0" result="BackgroundImageFix"/>
<feBlend mode="normal" in="SourceGraphic" in2="BackgroundImageFix" result="shape"/>
<feGaussianBlur stdDeviation="250" result="effect1_foregroundBlur_1_13"/>
</filter>
<filter id="filter3_f_1_13" x="-760.236" y="200.94" width="1617.04" height="1663.86" filterUnits="userSpaceOnUse" color-interpolation-filters="sRGB">
<feFlood flood-opacity="0" result="BackgroundImageFix"/>
<feBlend mode="normal" in="SourceGraphic" in2="BackgroundImageFix" result="shape"/>
<feGaussianBlur stdDeviation="250" result="effect1_foregroundBlur_1_13"/>
</filter>
<filter id="filter4_f_1_13" x="-330.938" y="860.027" width="1280.05" height="919.041" filterUnits="userSpaceOnUse" color-interpolation-filters="sRGB">
<feFlood flood-opacity="0" result="BackgroundImageFix"/>
<feBlend mode="normal" in="SourceGraphic" in2="BackgroundImageFix" result="shape"/>
<feGaussianBlur stdDeviation="150" result="effect1_foregroundBlur_1_13"/>
</filter>
</defs>
</svg>
