<svg width="60" height="60" viewBox="0 0 60 60" fill="none" xmlns="http://www.w3.org/2000/svg">
<path fill-rule="evenodd" clip-rule="evenodd" d="M12.2489 27H18.0859C18.3535 22.3608 19.2368 18.0872 20.5993 14.6468C16.2525 17.314 13.1254 21.7754 12.2489 27ZM30 6C16.7452 6 6 16.7452 6 30C6 43.2548 16.7452 54 30 54C43.2548 54 54 43.2548 54 30C54 16.7452 43.2548 6 30 6ZM30 12C29.7719 12 29.3036 12.0952 28.6041 12.7855C27.8917 13.4886 27.1125 14.6547 26.3935 16.3325C25.2274 19.0533 24.3747 22.7568 24.0971 27H35.9029C35.6253 22.7568 34.7726 19.0533 33.6065 16.3325C32.8875 14.6547 32.1083 13.4886 31.3959 12.7855C30.6964 12.0952 30.2281 12 30 12ZM41.9141 27C41.6465 22.3608 40.7632 18.0872 39.4007 14.6468C43.7474 17.314 46.8746 21.7754 47.7511 27H41.9141ZM35.9029 33H24.0971C24.3747 37.2432 25.2274 40.9467 26.3935 43.6675C27.1125 45.3453 27.8917 46.5114 28.6041 47.2145C29.3036 47.9048 29.7719 48 30 48C30.2281 48 30.6964 47.9048 31.3959 47.2145C32.1083 46.5114 32.8875 45.3453 33.6065 43.6675C34.7726 40.9467 35.6253 37.2432 35.9029 33ZM39.4007 45.3532C40.7632 41.9128 41.6465 37.6392 41.9141 33H47.7511C46.8746 38.2246 43.7474 42.686 39.4007 45.3532ZM20.5993 45.3532C19.2368 41.9128 18.3535 37.6392 18.0859 33H12.2489C13.1254 38.2246 16.2526 42.686 20.5993 45.3532Z" fill="#FFF"/>
</svg>
