<svg width="700" height="217" viewBox="0 0 700 217" fill="none" xmlns="http://www.w3.org/2000/svg">
<g clip-path="url(#clip0_1_60)">
<path d="M513.28 108.013C513.28 100.471 519.395 94.3563 526.937 94.3563H666.631C674.173 94.3563 680.288 100.471 680.288 108.013V183.904C680.288 191.447 674.173 197.561 666.631 197.561H513.28V108.013Z" stroke="white" stroke-width="38.2393"/>
<path d="M0.000442505 65.1508L45.8876 97.8076V216.469H0.000442505V65.1508Z" fill="white"/>
<path d="M123.489 216.469C138.805 216.469 152.079 205.863 155.458 190.924L160.059 170.582H0.000152588L0.000154594 216.469H123.489Z" fill="white"/>
<path d="M293.493 97.9274L339.38 65.1508V216.469H293.493V97.9274Z" fill="white"/>
<path d="M416.981 216.469C432.297 216.469 445.571 205.863 448.95 190.924L453.551 170.582H293.493V216.469H416.981Z" fill="white"/>
<path d="M226.776 51.995C241.134 51.995 252.773 40.3556 252.773 25.9975C252.773 11.6395 241.134 3.05176e-05 226.776 3.05176e-05C212.418 3.05176e-05 200.778 11.6395 200.778 25.9975C200.778 40.3556 212.418 51.995 226.776 51.995Z" fill="#8F44FF"/>
<path d="M249.785 216.681V81.5565L226.913 65.0045L204.041 81.5565V216.681H249.785Z" fill="white"/>
</g>
<defs>
<clipPath id="clip0_1_60">
<rect width="700" height="216.681" fill="white"/>
</clipPath>
</defs>
</svg>
