<svg width="172" height="54" viewBox="0 0 172 54" fill="none" xmlns="http://www.w3.org/2000/svg">
<g id="Logo Lilo 1" clip-path="url(#clip0_1_4145)">
<path id="Vector" d="M126.12 26.5405C126.12 24.6873 127.623 23.1848 129.476 23.1848H163.801C165.654 23.1848 167.156 24.6873 167.156 26.5405V45.1881C167.156 47.0413 165.654 48.5438 163.801 48.5438H126.12V26.5405Z" stroke="white" stroke-width="9.39595"/>
<path id="Vector_2" d="M0 16.0085L11.2751 24.0328V53.1897H0V16.0085Z" fill="white"/>
<path id="Vector_3" d="M30.343 53.1896C34.1064 53.1896 37.3679 50.5835 38.1982 46.9128L39.3288 41.9146H0L4.92929e-07 53.1896H30.343Z" fill="white"/>
<path id="Vector_4" d="M72.1152 24.0622L83.3903 16.0085V53.1897H72.1152V24.0622Z" fill="white"/>
<path id="Vector_5" d="M102.458 53.1896C106.222 53.1896 109.483 50.5835 110.313 46.9128L111.444 41.9146H72.1152V53.1896H102.458Z" fill="white"/>
<path id="Vector_6" d="M55.7222 12.7759C59.2502 12.7759 62.1101 9.91593 62.1101 6.38796C62.1101 2.85999 59.2502 0 55.7222 0C52.1942 0 49.3342 2.85999 49.3342 6.38796C49.3342 9.91593 52.1942 12.7759 55.7222 12.7759Z" fill="white"/>
<path id="Vector_7" d="M61.3756 53.2415V20.0395L55.7557 15.9724L50.1357 20.0395V53.2415H61.3756Z" fill="white"/>
</g>
<defs>
<clipPath id="clip0_1_4145">
<rect width="172" height="53.2416" fill="white"/>
</clipPath>
</defs>
</svg>
