<svg width="40" height="39" viewBox="0 0 40 39" fill="none" xmlns="http://www.w3.org/2000/svg">
<path fill-rule="evenodd" clip-rule="evenodd" d="M15.5289 6.42115C16.2904 7.18267 16.2904 8.41734 15.5289 9.17886L11.0577 13.65H21.95C29.4887 13.65 35.6 19.7613 35.6 27.3V31.2C35.6 32.277 34.727 33.15 33.65 33.15C32.5731 33.15 31.7 32.277 31.7 31.2V27.3C31.7 21.9152 27.3348 17.55 21.95 17.55H11.0577L15.5289 22.0211C16.2904 22.7827 16.2904 24.0173 15.5289 24.7789C14.7674 25.5404 13.5327 25.5404 12.7712 24.7789L4.97117 16.9789C4.20964 16.2173 4.20964 14.9827 4.97117 14.2211L12.7712 6.42115C13.5327 5.65963 14.7674 5.65963 15.5289 6.42115Z" fill="white"/>
</svg>
