<svg width="58" height="58" viewBox="0 0 58 58" fill="none" xmlns="http://www.w3.org/2000/svg">
<path d="M12.0833 29.0003H45.9167M12.0833 29.0003C9.41394 29.0003 7.24998 26.8364 7.24998 24.167V14.5003C7.24998 11.8309 9.41394 9.66699 12.0833 9.66699H45.9167C48.586 9.66699 50.75 11.8309 50.75 14.5003V24.167C50.75 26.8364 48.586 29.0003 45.9167 29.0003M12.0833 29.0003C9.41394 29.0003 7.24998 31.1643 7.24998 33.8337V43.5003C7.24998 46.1697 9.41394 48.3337 12.0833 48.3337H45.9167C48.586 48.3337 50.75 46.1697 50.75 43.5003V33.8337C50.75 31.1643 48.586 29.0003 45.9167 29.0003M41.0833 19.3337H41.1075M41.0833 38.667H41.1075" stroke="white" stroke-width="4" stroke-linecap="round" stroke-linejoin="round"/>
</svg>
