<svg width="52" height="52" viewBox="0 0 52 52" fill="none" xmlns="http://www.w3.org/2000/svg">
<path d="M23.8333 41.1663H8.66666C7.51739 41.1663 6.41519 40.7098 5.60253 39.8971C4.78987 39.0845 4.33333 37.9823 4.33333 36.833V15.1663C4.33333 14.0171 4.78987 12.9149 5.60253 12.1022C6.41519 11.2896 7.51739 10.833 8.66666 10.833H19.5M19.5 10.833L13 4.33301M19.5 10.833L13 17.333M28.1667 10.833H43.3333C44.4826 10.833 45.5848 11.2896 46.3975 12.1022C47.2101 12.9149 47.6667 14.0171 47.6667 15.1663V36.833C47.6667 37.9823 47.2101 39.0845 46.3975 39.8971C45.5848 40.7098 44.4826 41.1663 43.3333 41.1663H32.5M32.5 41.1663L39 47.6663M32.5 41.1663L39 34.6663" stroke="#FFF" stroke-width="3" stroke-linecap="round" stroke-linejoin="round"/>
<circle cx="36" cy="22" r="4.5" stroke="#FFF" stroke-width="3"/>
<path d="M13 34L18.3333 29.2L21.6667 32.2L26.3333 28L30 31.3" stroke="#FFF" stroke-width="3" stroke-linecap="round"/>
</svg>
