<svg width="80" height="32" viewBox="0 0 80 32" fill="none" xmlns="http://www.w3.org/2000/svg">
<rect width="80" height="32" fill="white" fill-opacity="0.1"/>
<path opacity="0.7" d="M37.834 21.112C37.4607 21.112 37.1387 20.986 36.868 20.734C36.6067 20.4727 36.476 20.1413 36.476 19.74C36.476 19.3387 36.6067 19.0167 36.868 18.774C37.1387 18.522 37.4607 18.396 37.834 18.396C38.2167 18.396 38.5387 18.522 38.8 18.774C39.0613 19.0167 39.192 19.3387 39.192 19.74C39.192 20.1413 39.0613 20.4727 38.8 20.734C38.5387 20.986 38.2167 21.112 37.834 21.112ZM40.1401 21L43.5141 16.576L43.4721 17.78L40.2381 13.468H42.6881L44.7321 16.282L43.8081 16.31L45.9221 13.468H48.2461L44.9981 17.738V16.562L48.3581 21H45.8801L43.7381 18.004L44.6481 18.13L42.5201 21H40.1401ZM49.8382 21V10.612H52.0222V21H49.8382ZM57.0032 21.112C56.3592 21.112 55.7385 21.0373 55.1412 20.888C54.5532 20.7293 54.0865 20.5333 53.7412 20.3L54.4692 18.732C54.8145 18.9467 55.2205 19.124 55.6872 19.264C56.1632 19.3947 56.6298 19.46 57.0872 19.46C57.5912 19.46 57.9458 19.3993 58.1512 19.278C58.3658 19.1567 58.4732 18.9887 58.4732 18.774C58.4732 18.5967 58.3892 18.466 58.2212 18.382C58.0625 18.2887 57.8478 18.2187 57.5772 18.172C57.3065 18.1253 57.0078 18.0787 56.6812 18.032C56.3638 17.9853 56.0418 17.9247 55.7152 17.85C55.3885 17.766 55.0898 17.6447 54.8192 17.486C54.5485 17.3273 54.3292 17.1127 54.1612 16.842C54.0025 16.5713 53.9232 16.2213 53.9232 15.792C53.9232 15.316 54.0585 14.896 54.3292 14.532C54.6092 14.168 55.0105 13.8833 55.5332 13.678C56.0558 13.4633 56.6812 13.356 57.4092 13.356C57.9225 13.356 58.4452 13.412 58.9772 13.524C59.5092 13.636 59.9525 13.7993 60.3072 14.014L59.5792 15.568C59.2152 15.3533 58.8465 15.2087 58.4732 15.134C58.1092 15.05 57.7545 15.008 57.4092 15.008C56.9238 15.008 56.5692 15.0733 56.3452 15.204C56.1212 15.3347 56.0092 15.5027 56.0092 15.708C56.0092 15.8947 56.0885 16.0347 56.2472 16.128C56.4152 16.2213 56.6345 16.296 56.9052 16.352C57.1758 16.408 57.4698 16.4593 57.7872 16.506C58.1138 16.5433 58.4405 16.604 58.7672 16.688C59.0938 16.772 59.3878 16.8933 59.6492 17.052C59.9198 17.2013 60.1392 17.4113 60.3072 17.682C60.4752 17.9433 60.5592 18.2887 60.5592 18.718C60.5592 19.1847 60.4192 19.6 60.1392 19.964C59.8592 20.3187 59.4532 20.5987 58.9212 20.804C58.3985 21.0093 57.7592 21.112 57.0032 21.112ZM61.238 21L64.612 16.576L64.57 17.78L61.336 13.468H63.786L65.83 16.282L64.906 16.31L67.02 13.468H69.344L66.096 17.738V16.562L69.456 21H66.978L64.836 18.004L65.746 18.13L63.618 21H61.238Z" fill="white"/>
<g opacity="0.7">
<path d="M14 8H12C10.8954 8 10 8.89543 10 10V22C10 23.1046 10.8954 24 12 24H24C25.1046 24 26 23.1046 26 22V10C26 8.89543 25.1046 8 24 8H22M18 7V20M18 20L21 17M18 20L15 17" stroke="#FFFFFF" stroke-width="2" stroke-linecap="round" stroke-linejoin="round"/>
</g>
</svg>
