<svg xmlns="http://www.w3.org/2000/svg" viewBox="0 0 727.1 902.89"><defs><style>.cls-1{fill:#f67a1e;fill-rule:evenodd;}</style></defs><g id="Слой_2" data-name="Слой 2"><g id="Слой_1-2" data-name="Слой 1"><path class="cls-1" d="M64.1.89c54.63-.76,97.12,47.79,130,73,17.38,13.33,25,27.06,55,29l13-12c2.55-6.61,2.64-10.35,6-15h42c12.5,4.61,19.15,26.11,36,23q1-22.5,2-45l4-1,3,37,15,1,1-1c-.37-11.71-2.19-31.2,3-38l2,1v2c5.29,14.35-1.18,34.16,6,45h1l5-2c3.53-8.22,19.95-17.77,27-23,17.73-.37,32.57-.51,45,4-.3,14.24,5.84,17.68,14,23l21,1,19-15c29-20.74,55-42.76,84-64,13.5-9.9,37.54-31.72,64-21,27.41,13.74,18,102.23,18,146q-1,22.5-2,45,1,9,2,18c-3.35,24.48-15.81,75.5-4,99,4.28,8.53,17.52,12.83,23,20,6,7.85,1.67,20.9,5,32s13.2,11.31,19,19q2,8,4,16c-7.33,7.82-17.87,27.4-11,48l7,7c5.87,14.34-1.3,44.88-4,54-10.58-.4-18,.45-24,4,.67,2,1.33,4,2,6q7,5,14,10c-.33,1-.67,2-1,3-7,8.63-11.13,9.63-25,12-3,7.4-3.8,7.63-12,10v4c15.57,9.7,32.25,28.22,8,37l-23-6-1,1c.11,5.85-3,6.78-2,12,1,5.52,6.51,6.75,5,14l-19,4c.81,7.05,3.79,8.62,7,13-.67,1.67-1.33,3.34-2,5l-15,3v1c.33,1.34.67,2.67,1,4,6.61,1.36,10.89,5.18,14,10l-19,18c-.3,10.12,1.84,12.83,6,18-2.14,13.14-23.84,37.8-44,30-5.8-2.24-8.07-6.75-17-3,.37,6.23,1,15.88-2,19l-23,20c-3,6.38,1.42,7.35-4,11a11.26,11.26,0,0,1-9,1c-2.18-7.65-1.57-15-4-24h-4l-9,8c-7.75-1.79-9.07-4.47-14,2,3.6,11.75,15.08,28,7,47l-2-1c-.33-3.66-.67-7.33-1-11h-1l-8,3v-7c-7.88.81-17.58-.68-25,1-2.89,10.24-14.92,12.18-18,21q-.5,36-1,72l-2,1-3-2q-1-37.49-2-75l-15-10-4,1c-1.56,11.33-10.24,15-17,21q.5,6.51,1,13l13,14-1,2-12-9-4,1c-6.78,20.24-26.1,28.6-43,39,.27,9.26.92,21.84-2,28h-1l-2-1c-.32-10.32-.73-23.73-5-30-20.53-8.11-25.7-23.83-41-36h-2c-2.82,3.84-5.72,6.53-11,8v-2c-.33-1-.67-2-1-3l14-13c0-20.06-11.81-18.1-17-33h-3c-20.46,12.42-17,35.29-17,68,0,6.86.72,15.05-2,19l-3-1-3-73c-2.77-8.08-13.41-13.28-18-21-8.43.76-17.37-.32-24,1-.33,2-.67,4-1,6-2.82-1.74-2.57-2.17-7-3l-1,1c.2,5.1,0,8.47-2,11l-3-1v-32l9-10c3.07-11.68-19.17-18.26-28-16,.36,10.06.54,21.16-3,27h-1l-6-1c-5.52-4.08-3-9.32-7-15l-23-17q-1-11-2-22h-1c-14.73,2.08-21.51,9.06-39,3,.74-3.7.47-3.89-1-7-12.25-1.37-20-10.74-17-24l6-2c.22-8.14-1.11-12.48-4-17q-8.5-6.5-17-13l6-6,6-6v-3l-15-8,7-9c-3.65-6-13.2-5.27-19-9,3.92-9.29,5.81-17.44,3-28h-1c-10.34,2.2-23.6,11.56-34,4-2.07-2-1-.37-2-4,4.94-10.49,5.44-13.25,13-23l11-6c-3.83-13.23-31.45-14.93-40-25l1-3c3.15-6.54,11-10.35,17-14v-3l-2-2c-10.15-.94-18.79-1.81-25-6-3.83-12.94-3.12-33.61-3-51l9-5c.27-12.45,2.19-32-2-41l-9-5a67.8,67.8,0,0,1,2-21c4.28-1,12.63-2.62,15-6,7.47-10.36,4.21-28.54,7-42,11.64-5.59,16.12-14.24,26-21-.46-18.49,8.37-30.7,4-51-2.56-11.87-8.62-25-11-39q1-92.49,2-185C48.34,19.81,53.87,9.86,64.1.89Zm0,0c54.63-.76,97.12,47.79,130,73,17.38,13.33,25,27.06,55,29l13-12c2.55-6.61,2.64-10.35,6-15h42c12.5,4.61,19.15,26.11,36,23q1-22.5,2-45l4-1,3,37,15,1,1-1c-.37-11.71-2.19-31.2,3-38l2,1v2c5.29,14.35-1.18,34.16,6,45h1l5-2c3.53-8.22,19.95-17.77,27-23,17.73-.37,32.57-.51,45,4-.3,14.24,5.84,17.68,14,23l21,1,19-15c29-20.74,55-42.76,84-64,13.5-9.9,37.54-31.72,64-21,27.41,13.74,18,102.23,18,146q-1,22.5-2,45,1,9,2,18c-3.35,24.48-15.81,75.5-4,99,4.28,8.53,17.52,12.83,23,20,6,7.85,1.67,20.9,5,32s13.2,11.31,19,19q2,8,4,16c-7.33,7.82-17.87,27.4-11,48l7,7c5.87,14.34-1.3,44.88-4,54-10.58-.4-18,.45-24,4,.67,2,1.33,4,2,6q7,5,14,10c-.33,1-.67,2-1,3-7,8.63-11.13,9.63-25,12-3,7.4-3.8,7.63-12,10v4c15.57,9.7,32.25,28.22,8,37l-23-6-1,1c.11,5.85-3,6.78-2,12,1,5.52,6.51,6.75,5,14l-19,4c.81,7.05,3.79,8.62,7,13-.67,1.67-1.33,3.34-2,5l-15,3v1c.33,1.34.67,2.67,1,4,6.61,1.36,10.89,5.18,14,10l-19,18c-.3,10.12,1.84,12.83,6,18-2.14,13.14-23.84,37.8-44,30-5.8-2.24-8.07-6.75-17-3,.37,6.23,1,15.88-2,19l-23,20c-3,6.38,1.42,7.35-4,11a11.26,11.26,0,0,1-9,1c-2.18-7.65-1.57-15-4-24h-4l-9,8c-7.75-1.79-9.07-4.47-14,2,3.6,11.75,15.08,28,7,47l-2-1c-.33-3.66-.67-7.33-1-11h-1l-8,3v-7c-7.88.81-17.58-.68-25,1-2.89,10.24-14.92,12.18-18,21q-.5,36-1,72l-2,1-3-2q-1-37.49-2-75l-15-10-4,1c-1.56,11.33-10.24,15-17,21q.5,6.51,1,13l13,14-1,2-12-9-4,1c-6.78,20.24-26.1,28.6-43,39,.27,9.26.92,21.84-2,28h-1l-2-1c-.32-10.32-.73-23.73-5-30-20.53-8.11-25.7-23.83-41-36h-2c-2.82,3.84-5.72,6.53-11,8v-2c-.33-1-.67-2-1-3l14-13c0-20.06-11.81-18.1-17-33h-3c-20.46,12.42-17,35.29-17,68,0,6.86.72,15.05-2,19l-3-1-3-73c-2.77-8.08-13.41-13.28-18-21-8.43.76-17.37-.32-24,1-.33,2-.67,4-1,6-2.82-1.74-2.57-2.17-7-3l-1,1c.2,5.1,0,8.47-2,11l-3-1v-32l9-10c3.07-11.68-19.17-18.26-28-16,.36,10.06.54,21.16-3,27h-1l-6-1c-5.52-4.08-3-9.32-7-15l-23-17q-1-11-2-22h-1c-14.73,2.08-21.51,9.06-39,3,.74-3.7.47-3.89-1-7-12.25-1.37-20-10.74-17-24l6-2c.22-8.14-1.11-12.48-4-17q-8.5-6.5-17-13l6-6,6-6v-3l-15-8,7-9c-3.65-6-13.2-5.27-19-9,3.92-9.29,5.81-17.44,3-28h-1c-10.34,2.2-23.6,11.56-34,4-2.07-2-1-.37-2-4,4.94-10.49,5.44-13.25,13-23l11-6c-3.83-13.23-31.45-14.93-40-25l1-3c3.15-6.54,11-10.35,17-14v-3l-2-2c-10.15-.94-18.79-1.81-25-6-3.83-12.94-3.12-33.61-3-51l9-5c.27-12.45,2.19-32-2-41l-9-5a67.8,67.8,0,0,1,2-21c4.28-1,12.63-2.62,15-6,7.47-10.36,4.21-28.54,7-42,11.64-5.59,16.12-14.24,26-21-.46-18.49,8.37-30.7,4-51-2.56-11.87-8.62-25-11-39q1-92.49,2-185C48.34,19.81,53.87,9.86,64.1.89Z"/></g></g></svg>