<svg width="45" height="45" viewBox="0 0 45 45" fill="none" xmlns="http://www.w3.org/2000/svg">
<path fill-rule="evenodd" clip-rule="evenodd" d="M9 9C9 6.51472 11.0147 4.5 13.5 4.5H23.818C25.0115 4.5 26.1561 4.97411 27 5.81802L34.682 13.5C35.5259 14.3439 36 15.4885 36 16.682V36C36 38.4853 33.9853 40.5 31.5 40.5H13.5C11.0147 40.5 9 38.4853 9 36V9ZM13.5 22.5C13.5 21.2574 14.5074 20.25 15.75 20.25H29.25C30.4926 20.25 31.5 21.2574 31.5 22.5C31.5 23.7426 30.4926 24.75 29.25 24.75H15.75C14.5074 24.75 13.5 23.7426 13.5 22.5ZM15.75 29.25C14.5074 29.25 13.5 30.2574 13.5 31.5C13.5 32.7426 14.5074 33.75 15.75 33.75H29.25C30.4926 33.75 31.5 32.7426 31.5 31.5C31.5 30.2574 30.4926 29.25 29.25 29.25H15.75Z" fill="white"/>
</svg>
