<svg width="52" height="52" viewBox="0 0 52 52" fill="none" xmlns="http://www.w3.org/2000/svg">
<path d="M18.4167 31.4167C19.8533 31.4167 21.231 30.846 22.2468 29.8302C23.2626 28.8143 23.8333 27.4366 23.8333 26C23.8333 23.01 22.75 21.6667 21.6667 19.5C19.344 14.8568 21.1813 10.7163 26 6.5C27.0833 11.9167 30.3333 17.1167 34.6667 20.5833C39 24.05 41.1667 28.1667 41.1667 32.5C41.1667 34.4917 40.7744 36.4639 40.0122 38.304C39.25 40.1441 38.1328 41.8161 36.7244 43.2245C35.3161 44.6328 33.6441 45.75 31.804 46.5122C29.9639 47.2744 27.9917 47.6667 26 47.6667C24.0083 47.6667 22.0361 47.2744 20.196 46.5122C18.3559 45.75 16.6839 44.6328 15.2755 43.2245C13.8672 41.8161 12.75 40.1441 11.9878 38.304C11.2256 36.4639 10.8333 34.4917 10.8333 32.5C10.8333 30.0018 11.7715 27.5297 13 26C13 27.4366 13.5707 28.8143 14.5865 29.8302C15.6023 30.846 16.9801 31.4167 18.4167 31.4167Z" stroke="#FFF" stroke-width="3" stroke-linecap="round" stroke-linejoin="round"/>
<path d="M27 39C29.3333 38.3333 33.9 35.8 33.5 31" stroke="#FFF" stroke-width="3" stroke-linecap="round"/>
</svg>
