<svg width="26" height="26" viewBox="0 0 26 26" fill="none" xmlns="http://www.w3.org/2000/svg">
<path d="M9.45836 3.09799L9.23322 2.65155L9.45836 3.09799ZM13.9289 2.00143L13.9206 1.5015L13.9289 2.00143ZM18.437 2.94935L18.227 3.40315L18.437 2.94935ZM21.9431 6.23188C22.2175 6.2633 22.4653 6.06636 22.4968 5.79201L23.0087 1.32123C23.0402 1.04688 22.8432 0.79901 22.5689 0.767592C22.2945 0.736174 22.0467 0.933108 22.0152 1.20746L21.5601 5.18148L17.5861 4.72638C17.3118 4.69497 17.0639 4.8919 17.0325 5.16625C17.001 5.4406 17.198 5.68847 17.4723 5.71989L21.9431 6.23188ZM6.40226 6.29697C7.24981 5.14892 8.37363 4.20501 9.6835 3.54443L9.23322 2.65155C7.78696 3.3809 6.54061 4.42587 5.59774 5.70303L6.40226 6.29697ZM9.6835 3.54443C10.9935 2.88381 12.4511 2.52596 13.9371 2.50136L13.9206 1.5015C12.2855 1.52856 10.6794 1.92223 9.23322 2.65155L9.6835 3.54443ZM13.9371 2.50136C15.4231 2.47676 16.8933 2.78615 18.227 3.40315L18.6469 2.49556C17.1751 1.8147 15.5556 1.47443 13.9206 1.5015L13.9371 2.50136ZM18.227 3.40315C19.5607 4.02011 20.719 4.92651 21.6085 6.04616L22.3915 5.42409C21.4025 4.17927 20.1188 3.17645 18.6469 2.49556L18.227 3.40315Z" fill="#FFF"/>
</svg>
