<svg width="26" height="26" viewBox="0 0 26 26" fill="none" xmlns="http://www.w3.org/2000/svg">
<path d="M8.63085 20.5005L8.90042 20.0793H8.90042L8.63085 20.5005ZM5.40414 17.1375L4.97285 17.3904L5.40414 17.1375ZM4.02326 12.6442L3.52439 12.6777L4.02326 12.6442ZM5.25157 7.80965C5.14644 7.5543 4.85422 7.43252 4.59887 7.53765L0.437712 9.25077C0.182363 9.3559 0.0605826 9.64812 0.165708 9.90347C0.270834 10.1588 0.563056 10.2806 0.818406 10.1755L4.51721 8.6527L6.03998 12.3515C6.14511 12.6069 6.43733 12.7286 6.69268 12.6235C6.94803 12.5184 7.06981 12.2262 6.96469 11.9708L5.25157 7.80965ZM13.0451 21.502C11.5737 21.3688 10.1535 20.8815 8.90042 20.0793L8.36128 20.9216C9.74861 21.8097 11.3227 22.3501 12.9549 22.498L13.0451 21.502ZM8.90042 20.0793C7.64733 19.2772 6.59677 18.1827 5.83544 16.8845L4.97285 17.3904C5.81315 18.8232 6.974 20.0335 8.36128 20.9216L8.90042 20.0793ZM5.83544 16.8845C5.07408 15.5864 4.62383 14.1218 4.52213 12.6106L3.52439 12.6777C3.63644 14.3428 4.13257 15.9577 4.97285 17.3904L5.83544 16.8845ZM4.52213 12.6106C4.42043 11.0994 4.67023 9.58531 5.25074 8.19234L4.32769 7.80766C3.68748 9.34391 3.41233 11.0127 3.52439 12.6777L4.52213 12.6106Z" fill="#FFF"/>
<path d="M23.9996 12.4362L24.4996 12.4407V12.4407L23.9996 12.4362ZM22.8082 16.8548L22.3726 16.6093L22.8082 16.8548ZM19.5733 20.2925L19.8484 20.71L19.5733 20.2925ZM14.6013 21.6982C14.4347 21.9184 14.4781 22.232 14.6982 22.3987L18.2862 25.1146C18.5064 25.2812 18.82 25.2379 18.9867 25.0177C19.1533 24.7975 19.11 24.4839 18.8898 24.3172L15.7004 21.9031L18.1146 18.7138C18.2812 18.4936 18.2379 18.18 18.0177 18.0133C17.7975 17.8467 17.4839 17.89 17.3172 18.1102L14.6013 21.6982ZM22.448 8.23784C23.1532 9.54183 23.5127 10.9788 23.4997 12.4317L24.4996 12.4407C24.5142 10.8156 24.1118 9.21226 23.3276 7.76216L22.448 8.23784ZM23.4997 12.4317C23.4866 13.8846 23.1013 15.316 22.3726 16.6093L23.2438 17.1002C24.0538 15.6626 24.485 14.0657 24.4996 12.4407L23.4997 12.4317ZM22.3726 16.6093C21.6438 17.9029 20.5914 19.0228 19.2982 19.875L19.8484 20.71C21.2694 19.7736 22.434 18.5376 23.2438 17.1002L22.3726 16.6093ZM19.2982 19.875C18.0048 20.7272 16.5086 21.2865 14.9315 21.5047L15.0685 22.4953C16.7895 22.2572 18.4275 21.6463 19.8484 20.71L19.2982 19.875Z" fill="#FFF"/>
<path d="M9.45836 3.09799L9.23322 2.65155L9.45836 3.09799ZM13.9289 2.00143L13.9206 1.5015L13.9289 2.00143ZM18.437 2.94935L18.227 3.40315L18.437 2.94935ZM21.9431 6.23188C22.2175 6.2633 22.4653 6.06636 22.4968 5.79201L23.0087 1.32123C23.0402 1.04688 22.8432 0.79901 22.5689 0.767592C22.2945 0.736174 22.0467 0.933108 22.0152 1.20746L21.5601 5.18148L17.5861 4.72638C17.3118 4.69497 17.0639 4.8919 17.0325 5.16625C17.001 5.4406 17.198 5.68847 17.4723 5.71989L21.9431 6.23188ZM6.40226 6.29697C7.24981 5.14892 8.37363 4.20501 9.6835 3.54443L9.23322 2.65155C7.78696 3.3809 6.54061 4.42587 5.59774 5.70303L6.40226 6.29697ZM9.6835 3.54443C10.9935 2.88381 12.4511 2.52596 13.9371 2.50136L13.9206 1.5015C12.2855 1.52856 10.6794 1.92223 9.23322 2.65155L9.6835 3.54443ZM13.9371 2.50136C15.4231 2.47676 16.8933 2.78615 18.227 3.40315L18.6469 2.49556C17.1751 1.8147 15.5556 1.47443 13.9206 1.5015L13.9371 2.50136ZM18.227 3.40315C19.5607 4.02011 20.719 4.92651 21.6085 6.04616L22.3915 5.42409C21.4025 4.17927 20.1188 3.17645 18.6469 2.49556L18.227 3.40315Z" fill="#FFF"/>
</svg>
