<svg width="1920" height="1080" viewBox="0 0 1920 1080" fill="none" xmlns="http://www.w3.org/2000/svg">
<g filter="url(#filter0_f_1_4)">
<path fill-rule="evenodd" clip-rule="evenodd" d="M1519.68 1727.94C1163.12 1656.84 1403.28 1113.69 1286.31 769.486C1165.3 413.394 623.161 113.015 876.362 -165.102C1176.08 -494.317 1720.41 -363.945 2083.09 -105.707C2447.7 153.895 2671.5 591.667 2540.05 1019.47C2405.6 1457.02 1968.65 1817.45 1519.68 1727.94Z" fill="#23014E"/>
</g>
<g filter="url(#filter1_f_1_4)">
<path fill-rule="evenodd" clip-rule="evenodd" d="M993.971 1466.97C747.916 1199.3 1262.15 902.235 1370.64 555.267C1482.88 196.313 1222.15 -365.964 1590.64 -441.283C2026.84 -530.44 2389.59 -104.177 2530.24 318.25C2671.63 742.909 2594.25 1228.44 2235.82 1496.45C1869.23 1770.56 1303.79 1804.01 993.971 1466.97Z" fill="#3C0187"/>
</g>
<g filter="url(#filter2_f_1_4)">
<path fill-rule="evenodd" clip-rule="evenodd" d="M1332.01 1361.8C1222.37 1248.37 1480.5 844.818 1524.5 693.454C1592.81 458.447 1364.98 -149.179 1609.26 -165.531C1885.65 -184.03 2202.57 357.662 2270.86 626.142C2334.73 877.235 2284.85 1165.47 2061.78 1297.01C1859.92 1416.05 1495.02 1530.45 1332.01 1361.8Z" fill="#5A13B4" fill-opacity="0.8"/>
</g>
<g filter="url(#filter3_f_1_4)">
<path fill-rule="evenodd" clip-rule="evenodd" d="M1308.03 1200.21C1249.49 1059.26 1495.1 1015.98 1587.84 894.697C1683.78 769.226 1661.85 509.946 1818.05 533.194C2002.96 560.712 2084.71 780.999 2079.39 967.853C2074.05 1155.69 1973.65 1336.11 1793.68 1390.32C1609.61 1445.76 1381.74 1377.69 1308.03 1200.21Z" fill="#8F44FF" fill-opacity="0.8"/>
</g>
<g filter="url(#filter4_f_1_4)">
<path fill-rule="evenodd" clip-rule="evenodd" d="M1909.39 995.087C2052.33 1025.91 2108.15 820.557 2151.87 681.026C2174.18 609.819 2110.05 557.649 2065.13 498.059C1957.6 355.383 1901.93 57.7646 1741.74 136.877C1581.71 215.908 1799.4 437.222 1833.62 612.391C1861.19 753.494 1768.86 964.778 1909.39 995.087Z" fill="#761CFF" fill-opacity="0.6"/>
</g>
<defs>
<filter id="filter0_f_1_4" x="109.794" y="-1061.28" width="3168.22" height="3502.97" filterUnits="userSpaceOnUse" color-interpolation-filters="sRGB">
<feFlood flood-opacity="0" result="BackgroundImageFix"/>
<feBlend mode="normal" in="SourceGraphic" in2="BackgroundImageFix" result="shape"/>
<feGaussianBlur stdDeviation="350" result="effect1_foregroundBlur_1_4"/>
</filter>
<filter id="filter1_f_1_4" x="428.061" y="-953.21" width="2668.74" height="3164.1" filterUnits="userSpaceOnUse" color-interpolation-filters="sRGB">
<feFlood flood-opacity="0" result="BackgroundImageFix"/>
<feBlend mode="normal" in="SourceGraphic" in2="BackgroundImageFix" result="shape"/>
<feGaussianBlur stdDeviation="250" result="effect1_foregroundBlur_1_4"/>
</filter>
<filter id="filter2_f_1_4" x="905.112" y="-565.993" width="1791.46" height="2412.88" filterUnits="userSpaceOnUse" color-interpolation-filters="sRGB">
<feFlood flood-opacity="0" result="BackgroundImageFix"/>
<feBlend mode="normal" in="SourceGraphic" in2="BackgroundImageFix" result="shape"/>
<feGaussianBlur stdDeviation="200" result="effect1_foregroundBlur_1_4"/>
</filter>
<filter id="filter3_f_1_4" x="999.118" y="231.729" width="1380.52" height="1477.42" filterUnits="userSpaceOnUse" color-interpolation-filters="sRGB">
<feFlood flood-opacity="0" result="BackgroundImageFix"/>
<feBlend mode="normal" in="SourceGraphic" in2="BackgroundImageFix" result="shape"/>
<feGaussianBlur stdDeviation="150" result="effect1_foregroundBlur_1_4"/>
</filter>
<filter id="filter4_f_1_4" x="1283.64" y="-276.279" width="1272.8" height="1674.47" filterUnits="userSpaceOnUse" color-interpolation-filters="sRGB">
<feFlood flood-opacity="0" result="BackgroundImageFix"/>
<feBlend mode="normal" in="SourceGraphic" in2="BackgroundImageFix" result="shape"/>
<feGaussianBlur stdDeviation="200" result="effect1_foregroundBlur_1_4"/>
</filter>
</defs>
</svg>
