<svg xmlns="http://www.w3.org/2000/svg" width="211" height="198" viewBox="0 0 211 198" fill="none">
<path fill-rule="evenodd" clip-rule="evenodd" d="M128.223 55.6728C127.821 55.2702 127.168 55.2702 126.766 55.6728L124.402 58.0366L124.402 52.2782C124.402 48.2927 121.171 45.0618 117.185 45.0618L115.124 45.0618C114.554 45.0618 114.093 45.5234 114.093 46.0927C114.093 46.6621 114.554 47.1236 115.124 47.1236L117.185 47.1236C120.032 47.1236 122.34 49.4314 122.34 52.2782L122.34 58.0366L119.976 55.6728C119.574 55.2702 118.921 55.2702 118.518 55.6728C118.116 56.0754 118.116 56.7282 118.518 57.1308L122.642 61.2544C123.044 61.657 123.697 61.657 124.1 61.2544L128.223 57.1308C128.626 56.7282 128.626 56.0754 128.223 55.6728Z" fill="#FFF"/>
<path d="M93.0546 73.5227H93.0747M85.0364 80.2523H101.073C103.287 80.2523 105.082 78.2437 105.082 75.7659V44.3614C105.082 41.8836 103.287 39.875 101.073 39.875H85.0364C82.8223 39.875 81.0273 41.8836 81.0273 44.3614V75.7659C81.0273 78.2437 82.8223 80.2523 85.0364 80.2523Z" stroke="#FFF" stroke-width="2.29091" stroke-linecap="round" stroke-linejoin="round"/>
<path fill-rule="evenodd" clip-rule="evenodd" d="M88.4727 84.6909L88.4727 88.7C88.4727 91.6645 91.1187 93.8545 94.1045 93.8545L125.509 93.8545C128.495 93.8545 131.141 91.6645 131.141 88.7V72.6636C131.141 69.6991 128.495 67.5091 125.509 67.5091L110.236 67.5091V69.8L125.509 69.8C127.479 69.8 128.85 71.1998 128.85 72.6636V88.7C128.85 90.1638 127.479 91.5636 125.509 91.5636L94.1045 91.5636C92.1349 91.5636 90.7636 90.1638 90.7636 88.7L90.7636 84.6909H88.4727Z" fill="#FFF"/>
</svg>